<svg viewBox="0 0 2400 3200" fill="none" xmlns="http://www.w3.org/2000/svg">

<defs>
    <mask id="mask_holes">
        <rect x="-100" y="-100" width="4000" height="4000" fill="white" />
        <circle fill="black"
                r="90"
                cx="0"
                cy="0"
            /><circle fill="black"
                r="90"
                cx="300"
                cy="0"
            /><circle fill="black"
                r="90"
                cx="600"
                cy="0"
            /><circle fill="black"
                r="90"
                cx="900"
                cy="0"
            /><circle fill="black"
                r="90"
                cx="1200"
                cy="0"
            /><circle fill="black"
                r="90"
                cx="1500"
                cy="0"
            /><circle fill="black"
                r="90"
                cx="1800"
                cy="0"
            /><circle fill="black"
                r="90"
                cx="2100"
                cy="0"
            /><circle fill="black"
                r="90"
                cx="2400"
                cy="0"
            /><circle fill="black"
                r="90"
                cx="0"
                cy="320"
            /><circle fill="black"
                r="90"
                cx="2400"
                cy="320"
            /><circle fill="black"
                r="90"
                cx="0"
                cy="640"
            /><circle fill="black"
                r="90"
                cx="2400"
                cy="640"
            /><circle fill="black"
                r="90"
                cx="0"
                cy="960"
            /><circle fill="black"
                r="90"
                cx="2400"
                cy="960"
            /><circle fill="black"
                r="90"
                cx="0"
                cy="1280"
            /><circle fill="black"
                r="90"
                cx="2400"
                cy="1280"
            /><circle fill="black"
                r="90"
                cx="0"
                cy="1600"
            /><circle fill="black"
                r="90"
                cx="2400"
                cy="1600"
            /><circle fill="black"
                r="90"
                cx="0"
                cy="1920"
            /><circle fill="black"
                r="90"
                cx="2400"
                cy="1920"
            /><circle fill="black"
                r="90"
                cx="0"
                cy="2240"
            /><circle fill="black"
                r="90"
                cx="2400"
                cy="2240"
            /><circle fill="black"
                r="90"
                cx="0"
                cy="2560"
            /><circle fill="black"
                r="90"
                cx="2400"
                cy="2560"
            /><circle fill="black"
                r="90"
                cx="0"
                cy="2880"
            /><circle fill="black"
                r="90"
                cx="2400"
                cy="2880"
            /><circle fill="black"
                r="90"
                cx="0"
                cy="3200"
            /><circle fill="black"
                r="90"
                cx="300"
                cy="3200"
            /><circle fill="black"
                r="90"
                cx="600"
                cy="3200"
            /><circle fill="black"
                r="90"
                cx="900"
                cy="3200"
            /><circle fill="black"
                r="90"
                cx="1200"
                cy="3200"
            /><circle fill="black"
                r="90"
                cx="1500"
                cy="3200"
            /><circle fill="black"
                r="90"
                cx="1800"
                cy="3200"
            /><circle fill="black"
                r="90"
                cx="2100"
                cy="3200"
            /><circle fill="black"
                r="90"
                cx="2400"
                cy="3200"
            />
    </mask>
</defs>

<rect x="-100" y="-100" width="4000" height="4000" fill="gray" mask="url(#mask_holes)" />

</svg>
